<mxfile host="app.diagrams.net" modified="2023-10-02T10:21:22.202Z" agent="Mozilla/5.0 (Windows NT 10.0; Win64; x64) AppleWebKit/537.36 (KHTML, like Gecko) Chrome/116.0.5845.2271 YaBrowser/23.9.0.2271 Yowser/2.5 Safari/537.36" etag="j5jHp-aQsMmcveiYYOdQ" version="21.8.0" type="device">
  <diagram name="Страница — 1" id="u-yI1q2wb7toL-uryAry">
    <mxGraphModel dx="1235" dy="639" grid="1" gridSize="10" guides="1" tooltips="1" connect="1" arrows="1" fold="1" page="1" pageScale="1" pageWidth="827" pageHeight="1169" math="0" shadow="0">
      <root>
        <mxCell id="0" />
        <mxCell id="1" parent="0" />
        <mxCell id="kyCp9KhVEXS-VckJVs2e-19" value="&lt;span style=&quot;font-size: 17px;&quot;&gt;&lt;b&gt;Backend&lt;/b&gt;&lt;/span&gt;" style="rounded=1;whiteSpace=wrap;html=1;shadow=0;arcSize=1;fillColor=none;dashed=1;align=left;verticalAlign=top;" vertex="1" parent="1">
          <mxGeometry x="170" y="560" width="240" height="720" as="geometry" />
        </mxCell>
        <mxCell id="kyCp9KhVEXS-VckJVs2e-34" value="&lt;span style=&quot;font-size: 17px;&quot;&gt;&lt;b&gt;CV Service&lt;/b&gt;&lt;/span&gt;" style="rounded=1;whiteSpace=wrap;html=1;shadow=0;arcSize=1;fillColor=none;dashed=1;align=left;verticalAlign=top;" vertex="1" parent="1">
          <mxGeometry x="630" y="480" width="730" height="360" as="geometry" />
        </mxCell>
        <mxCell id="kyCp9KhVEXS-VckJVs2e-1" value="Data Extraction" style="shape=process;whiteSpace=wrap;html=1;backgroundOutline=1;" vertex="1" parent="1">
          <mxGeometry x="320" y="160" width="120" height="60" as="geometry" />
        </mxCell>
        <mxCell id="kyCp9KhVEXS-VckJVs2e-2" value="&lt;span style=&quot;font-size: 17px;&quot;&gt;&lt;b&gt;ML Pipeline&lt;/b&gt;&lt;/span&gt;" style="rounded=1;whiteSpace=wrap;html=1;shadow=0;arcSize=1;fillColor=none;dashed=1;align=left;verticalAlign=top;" vertex="1" parent="1">
          <mxGeometry x="290" y="80" width="1090" height="230" as="geometry" />
        </mxCell>
        <mxCell id="kyCp9KhVEXS-VckJVs2e-3" value="" style="edgeStyle=orthogonalEdgeStyle;rounded=0;orthogonalLoop=1;jettySize=auto;html=1;startArrow=classic;startFill=1;endArrow=none;endFill=0;" edge="1" parent="1" source="kyCp9KhVEXS-VckJVs2e-4" target="kyCp9KhVEXS-VckJVs2e-1">
          <mxGeometry relative="1" as="geometry" />
        </mxCell>
        <mxCell id="kyCp9KhVEXS-VckJVs2e-4" value="Data Validation" style="shape=process;whiteSpace=wrap;html=1;backgroundOutline=1;" vertex="1" parent="1">
          <mxGeometry x="500" y="160" width="120" height="60" as="geometry" />
        </mxCell>
        <mxCell id="kyCp9KhVEXS-VckJVs2e-5" value="" style="edgeStyle=orthogonalEdgeStyle;rounded=0;orthogonalLoop=1;jettySize=auto;html=1;startArrow=classic;startFill=1;endArrow=none;endFill=0;" edge="1" parent="1" source="kyCp9KhVEXS-VckJVs2e-6">
          <mxGeometry relative="1" as="geometry">
            <mxPoint x="620" y="190" as="targetPoint" />
          </mxGeometry>
        </mxCell>
        <mxCell id="kyCp9KhVEXS-VckJVs2e-6" value="Data Processing" style="shape=process;whiteSpace=wrap;html=1;backgroundOutline=1;" vertex="1" parent="1">
          <mxGeometry x="680" y="160" width="120" height="60" as="geometry" />
        </mxCell>
        <mxCell id="kyCp9KhVEXS-VckJVs2e-7" value="" style="edgeStyle=orthogonalEdgeStyle;rounded=0;orthogonalLoop=1;jettySize=auto;html=1;startArrow=classic;startFill=1;endArrow=none;endFill=0;" edge="1" parent="1" source="kyCp9KhVEXS-VckJVs2e-8">
          <mxGeometry relative="1" as="geometry">
            <mxPoint x="800" y="190" as="targetPoint" />
          </mxGeometry>
        </mxCell>
        <mxCell id="kyCp9KhVEXS-VckJVs2e-8" value="Model Training" style="shape=process;whiteSpace=wrap;html=1;backgroundOutline=1;" vertex="1" parent="1">
          <mxGeometry x="860" y="160" width="120" height="60" as="geometry" />
        </mxCell>
        <mxCell id="kyCp9KhVEXS-VckJVs2e-9" value="" style="edgeStyle=orthogonalEdgeStyle;rounded=0;orthogonalLoop=1;jettySize=auto;html=1;startArrow=classic;startFill=1;endArrow=none;endFill=0;" edge="1" parent="1" source="kyCp9KhVEXS-VckJVs2e-10">
          <mxGeometry relative="1" as="geometry">
            <mxPoint x="980" y="190" as="targetPoint" />
          </mxGeometry>
        </mxCell>
        <mxCell id="kyCp9KhVEXS-VckJVs2e-10" value="Model Evaluation" style="shape=process;whiteSpace=wrap;html=1;backgroundOutline=1;" vertex="1" parent="1">
          <mxGeometry x="1040" y="160" width="120" height="60" as="geometry" />
        </mxCell>
        <mxCell id="kyCp9KhVEXS-VckJVs2e-11" value="" style="edgeStyle=orthogonalEdgeStyle;rounded=0;orthogonalLoop=1;jettySize=auto;html=1;startArrow=classic;startFill=1;endArrow=none;endFill=0;" edge="1" parent="1" source="kyCp9KhVEXS-VckJVs2e-12">
          <mxGeometry relative="1" as="geometry">
            <mxPoint x="1160" y="190" as="targetPoint" />
          </mxGeometry>
        </mxCell>
        <mxCell id="kyCp9KhVEXS-VckJVs2e-12" value="Model Validation" style="shape=process;whiteSpace=wrap;html=1;backgroundOutline=1;" vertex="1" parent="1">
          <mxGeometry x="1220" y="160" width="120" height="60" as="geometry" />
        </mxCell>
        <mxCell id="kyCp9KhVEXS-VckJVs2e-13" value="" style="edgeStyle=orthogonalEdgeStyle;rounded=0;orthogonalLoop=1;jettySize=auto;html=1;startArrow=none;startFill=0;endArrow=classic;endFill=1;" edge="1" parent="1" source="kyCp9KhVEXS-VckJVs2e-14" target="kyCp9KhVEXS-VckJVs2e-2">
          <mxGeometry relative="1" as="geometry" />
        </mxCell>
        <mxCell id="kyCp9KhVEXS-VckJVs2e-14" value="FeatureStore" style="shape=cylinder3;whiteSpace=wrap;html=1;boundedLbl=1;backgroundOutline=1;size=15;" vertex="1" parent="1">
          <mxGeometry x="110" y="105" width="110" height="180" as="geometry" />
        </mxCell>
        <mxCell id="kyCp9KhVEXS-VckJVs2e-92" style="edgeStyle=orthogonalEdgeStyle;rounded=0;orthogonalLoop=1;jettySize=auto;html=1;entryX=0;entryY=0.5;entryDx=0;entryDy=0;" edge="1" parent="1" source="kyCp9KhVEXS-VckJVs2e-16" target="kyCp9KhVEXS-VckJVs2e-28">
          <mxGeometry relative="1" as="geometry" />
        </mxCell>
        <mxCell id="kyCp9KhVEXS-VckJVs2e-16" value="CV" style="swimlane;whiteSpace=wrap;html=1;" vertex="1" parent="1">
          <mxGeometry x="202.5" y="610" width="177.5" height="115" as="geometry" />
        </mxCell>
        <mxCell id="kyCp9KhVEXS-VckJVs2e-17" value="Отсылает &lt;br&gt;следующую точку маршрута&lt;br&gt;и принимает результат" style="text;html=1;align=center;verticalAlign=middle;resizable=0;points=[];autosize=1;strokeColor=none;fillColor=none;" vertex="1" parent="kyCp9KhVEXS-VckJVs2e-16">
          <mxGeometry x="-2.5" y="35" width="180" height="60" as="geometry" />
        </mxCell>
        <mxCell id="kyCp9KhVEXS-VckJVs2e-28" value="CV Handler" style="swimlane;whiteSpace=wrap;html=1;" vertex="1" parent="1">
          <mxGeometry x="680" y="690" width="185" height="130" as="geometry" />
        </mxCell>
        <mxCell id="kyCp9KhVEXS-VckJVs2e-29" value="Принимает фреймы &lt;br&gt;и следующие точки маршрута,&lt;br&gt;возвращает словарь&amp;nbsp;&lt;br&gt;id покупателей и их&lt;br&gt;координат" style="text;html=1;align=center;verticalAlign=middle;resizable=0;points=[];autosize=1;strokeColor=none;fillColor=none;" vertex="1" parent="kyCp9KhVEXS-VckJVs2e-28">
          <mxGeometry x="-5" y="20" width="190" height="90" as="geometry" />
        </mxCell>
        <mxCell id="kyCp9KhVEXS-VckJVs2e-31" value="Detector" style="swimlane;whiteSpace=wrap;html=1;" vertex="1" parent="1">
          <mxGeometry x="905" y="690" width="225" height="130" as="geometry" />
        </mxCell>
        <mxCell id="kyCp9KhVEXS-VckJVs2e-32" value="Распознаем пользователей,&lt;br&gt;&amp;nbsp;возвращаем словарь id и &lt;br&gt;их координат" style="text;html=1;align=center;verticalAlign=middle;resizable=0;points=[];autosize=1;strokeColor=none;fillColor=none;" vertex="1" parent="kyCp9KhVEXS-VckJVs2e-31">
          <mxGeometry x="20" y="35" width="180" height="60" as="geometry" />
        </mxCell>
        <mxCell id="kyCp9KhVEXS-VckJVs2e-41" value="" style="shape=cylinder3;whiteSpace=wrap;html=1;boundedLbl=1;backgroundOutline=1;size=15;" vertex="1" parent="1">
          <mxGeometry x="600" y="380" width="450" height="70" as="geometry" />
        </mxCell>
        <mxCell id="kyCp9KhVEXS-VckJVs2e-42" value="ML metadata store" style="text;html=1;strokeColor=none;fillColor=none;align=center;verticalAlign=middle;whiteSpace=wrap;rounded=0;" vertex="1" parent="1">
          <mxGeometry x="760" y="410" width="173" height="30" as="geometry" />
        </mxCell>
        <mxCell id="kyCp9KhVEXS-VckJVs2e-44" value="" style="endArrow=classic;startArrow=classic;html=1;rounded=0;exitX=0.5;exitY=0;exitDx=0;exitDy=0;exitPerimeter=0;entryX=0.49;entryY=1.005;entryDx=0;entryDy=0;entryPerimeter=0;" edge="1" parent="1" source="kyCp9KhVEXS-VckJVs2e-41" target="kyCp9KhVEXS-VckJVs2e-2">
          <mxGeometry width="50" height="50" relative="1" as="geometry">
            <mxPoint x="730" y="300" as="sourcePoint" />
            <mxPoint x="780" y="250" as="targetPoint" />
          </mxGeometry>
        </mxCell>
        <mxCell id="kyCp9KhVEXS-VckJVs2e-45" value="Model registry" style="shape=cylinder3;whiteSpace=wrap;html=1;boundedLbl=1;backgroundOutline=1;size=15;" vertex="1" parent="1">
          <mxGeometry x="1441.25" y="150" width="60" height="80" as="geometry" />
        </mxCell>
        <mxCell id="kyCp9KhVEXS-VckJVs2e-46" style="edgeStyle=orthogonalEdgeStyle;rounded=0;orthogonalLoop=1;jettySize=auto;html=1;entryX=0;entryY=0.5;entryDx=0;entryDy=0;entryPerimeter=0;" edge="1" parent="1" source="kyCp9KhVEXS-VckJVs2e-12" target="kyCp9KhVEXS-VckJVs2e-45">
          <mxGeometry relative="1" as="geometry" />
        </mxCell>
        <mxCell id="kyCp9KhVEXS-VckJVs2e-48" value="&lt;span style=&quot;font-size: 17px;&quot;&gt;&lt;b&gt;Recommendation Service&lt;/b&gt;&lt;/span&gt;" style="rounded=1;whiteSpace=wrap;html=1;shadow=0;arcSize=1;fillColor=none;dashed=1;align=left;verticalAlign=top;" vertex="1" parent="1">
          <mxGeometry x="660" y="860" width="240" height="260" as="geometry" />
        </mxCell>
        <mxCell id="kyCp9KhVEXS-VckJVs2e-53" value="Recommendation predictor" style="swimlane;whiteSpace=wrap;html=1;" vertex="1" parent="1">
          <mxGeometry x="680" y="940" width="180" height="130" as="geometry" />
        </mxCell>
        <mxCell id="kyCp9KhVEXS-VckJVs2e-54" value="Получает список выбранных&lt;br&gt;пользователем товаров, &lt;br&gt;формирует рекомендации&lt;br&gt;&amp;nbsp;отправляет результат&lt;br&gt;(пока заглушка)" style="text;html=1;align=center;verticalAlign=middle;resizable=0;points=[];autosize=1;strokeColor=none;fillColor=none;" vertex="1" parent="kyCp9KhVEXS-VckJVs2e-53">
          <mxGeometry y="20" width="180" height="90" as="geometry" />
        </mxCell>
        <mxCell id="kyCp9KhVEXS-VckJVs2e-58" value="БД товаров и их местоположения" style="shape=cylinder3;whiteSpace=wrap;html=1;boundedLbl=1;backgroundOutline=1;size=15;" vertex="1" parent="1">
          <mxGeometry x="607.5" y="1210" width="220" height="80" as="geometry" />
        </mxCell>
        <mxCell id="kyCp9KhVEXS-VckJVs2e-85" style="edgeStyle=orthogonalEdgeStyle;rounded=0;orthogonalLoop=1;jettySize=auto;html=1;startArrow=classic;startFill=1;" edge="1" parent="1" source="kyCp9KhVEXS-VckJVs2e-59" target="kyCp9KhVEXS-VckJVs2e-48">
          <mxGeometry relative="1" as="geometry" />
        </mxCell>
        <mxCell id="kyCp9KhVEXS-VckJVs2e-86" style="edgeStyle=orthogonalEdgeStyle;rounded=0;orthogonalLoop=1;jettySize=auto;html=1;exitX=1;exitY=0.75;exitDx=0;exitDy=0;entryX=0.25;entryY=0;entryDx=0;entryDy=0;startArrow=classic;startFill=1;" edge="1" parent="1" source="kyCp9KhVEXS-VckJVs2e-59" target="kyCp9KhVEXS-VckJVs2e-74">
          <mxGeometry relative="1" as="geometry" />
        </mxCell>
        <mxCell id="kyCp9KhVEXS-VckJVs2e-59" value="Recommender" style="swimlane;whiteSpace=wrap;html=1;" vertex="1" parent="1">
          <mxGeometry x="202.5" y="875" width="175" height="115" as="geometry" />
        </mxCell>
        <mxCell id="kyCp9KhVEXS-VckJVs2e-60" value="Получает список &lt;br&gt;товаров от пользователя,&lt;br&gt;&amp;nbsp;посылает в &lt;br&gt;Recommendation Service, &lt;br&gt;получает результат" style="text;html=1;align=center;verticalAlign=middle;resizable=0;points=[];autosize=1;strokeColor=none;fillColor=none;" vertex="1" parent="kyCp9KhVEXS-VckJVs2e-59">
          <mxGeometry x="2.5" y="20" width="170" height="90" as="geometry" />
        </mxCell>
        <mxCell id="kyCp9KhVEXS-VckJVs2e-97" style="edgeStyle=orthogonalEdgeStyle;rounded=0;orthogonalLoop=1;jettySize=auto;html=1;entryX=0;entryY=0.75;entryDx=0;entryDy=0;" edge="1" parent="1" source="kyCp9KhVEXS-VckJVs2e-61" target="kyCp9KhVEXS-VckJVs2e-28">
          <mxGeometry relative="1" as="geometry" />
        </mxCell>
        <mxCell id="kyCp9KhVEXS-VckJVs2e-98" style="edgeStyle=orthogonalEdgeStyle;rounded=0;orthogonalLoop=1;jettySize=auto;html=1;entryX=0;entryY=0.25;entryDx=0;entryDy=0;" edge="1" parent="1">
          <mxGeometry relative="1" as="geometry">
            <mxPoint x="377.5" y="780.0194117647059" as="sourcePoint" />
            <mxPoint x="678.75" y="539.99" as="targetPoint" />
            <Array as="points">
              <mxPoint x="578.75" y="780.49" />
              <mxPoint x="578.75" y="540.49" />
            </Array>
          </mxGeometry>
        </mxCell>
        <mxCell id="kyCp9KhVEXS-VckJVs2e-61" value="Video Capture" style="swimlane;whiteSpace=wrap;html=1;" vertex="1" parent="1">
          <mxGeometry x="201.25" y="745" width="177.5" height="115" as="geometry" />
        </mxCell>
        <mxCell id="kyCp9KhVEXS-VckJVs2e-62" value="Получает видеопоток&amp;nbsp;&lt;br&gt;в локальной сети, отсылает на&amp;nbsp;&lt;br&gt;CV Service" style="text;html=1;align=center;verticalAlign=middle;resizable=0;points=[];autosize=1;strokeColor=none;fillColor=none;" vertex="1" parent="kyCp9KhVEXS-VckJVs2e-61">
          <mxGeometry x="-12.5" y="35" width="200" height="60" as="geometry" />
        </mxCell>
        <mxCell id="kyCp9KhVEXS-VckJVs2e-63" value="Route builder" style="swimlane;whiteSpace=wrap;html=1;" vertex="1" parent="1">
          <mxGeometry x="200" y="1150" width="177.5" height="115" as="geometry" />
        </mxCell>
        <mxCell id="kyCp9KhVEXS-VckJVs2e-64" value="Получает список товаров,&lt;br&gt;до которых&lt;br&gt;надо довести пользователя,&lt;br&gt;отсылает в Route Service,&lt;br&gt;получает результат" style="text;html=1;align=center;verticalAlign=middle;resizable=0;points=[];autosize=1;strokeColor=none;fillColor=none;" vertex="1" parent="kyCp9KhVEXS-VckJVs2e-63">
          <mxGeometry x="-2.5" y="20" width="180" height="90" as="geometry" />
        </mxCell>
        <mxCell id="kyCp9KhVEXS-VckJVs2e-65" value="Actor" style="shape=umlActor;verticalLabelPosition=bottom;verticalAlign=top;html=1;outlineConnect=0;" vertex="1" parent="1">
          <mxGeometry x="30" y="830" width="30" height="60" as="geometry" />
        </mxCell>
        <mxCell id="kyCp9KhVEXS-VckJVs2e-66" value="&lt;span style=&quot;font-size: 17px;&quot;&gt;&lt;b&gt;Route Service&lt;/b&gt;&lt;/span&gt;" style="rounded=1;whiteSpace=wrap;html=1;shadow=0;arcSize=1;fillColor=none;dashed=1;align=left;verticalAlign=top;" vertex="1" parent="1">
          <mxGeometry x="180" y="1300" width="230" height="180" as="geometry" />
        </mxCell>
        <mxCell id="kyCp9KhVEXS-VckJVs2e-67" value="Route builder" style="swimlane;whiteSpace=wrap;html=1;" vertex="1" parent="1">
          <mxGeometry x="196" y="1350" width="177.5" height="115" as="geometry" />
        </mxCell>
        <mxCell id="kyCp9KhVEXS-VckJVs2e-68" value="Получает список товаров,&lt;br&gt;до которых&lt;br&gt;надо довести пользователя,&lt;br&gt;формирует маршрут&lt;br&gt;отсылает в backend" style="text;html=1;align=center;verticalAlign=middle;resizable=0;points=[];autosize=1;strokeColor=none;fillColor=none;" vertex="1" parent="kyCp9KhVEXS-VckJVs2e-67">
          <mxGeometry x="-2.5" y="20" width="180" height="90" as="geometry" />
        </mxCell>
        <mxCell id="kyCp9KhVEXS-VckJVs2e-69" style="edgeStyle=orthogonalEdgeStyle;rounded=0;orthogonalLoop=1;jettySize=auto;html=1;startArrow=classic;startFill=1;" edge="1" parent="1" source="kyCp9KhVEXS-VckJVs2e-63">
          <mxGeometry relative="1" as="geometry">
            <mxPoint x="410" y="1330" as="targetPoint" />
            <Array as="points">
              <mxPoint x="470" y="1207" />
              <mxPoint x="470" y="1330" />
              <mxPoint x="410" y="1330" />
            </Array>
          </mxGeometry>
        </mxCell>
        <mxCell id="kyCp9KhVEXS-VckJVs2e-77" style="edgeStyle=orthogonalEdgeStyle;rounded=0;orthogonalLoop=1;jettySize=auto;html=1;startArrow=classic;startFill=1;" edge="1" parent="1" source="kyCp9KhVEXS-VckJVs2e-71" target="kyCp9KhVEXS-VckJVs2e-75">
          <mxGeometry relative="1" as="geometry" />
        </mxCell>
        <mxCell id="kyCp9KhVEXS-VckJVs2e-71" value="Goods info" style="swimlane;whiteSpace=wrap;html=1;" vertex="1" parent="1">
          <mxGeometry x="201.25" y="1020" width="177.5" height="115" as="geometry" />
        </mxCell>
        <mxCell id="kyCp9KhVEXS-VckJVs2e-72" value="Возвращает пользователю&lt;br&gt;список товаров из БД" style="text;html=1;align=center;verticalAlign=middle;resizable=0;points=[];autosize=1;strokeColor=none;fillColor=none;" vertex="1" parent="kyCp9KhVEXS-VckJVs2e-71">
          <mxGeometry y="50" width="170" height="40" as="geometry" />
        </mxCell>
        <mxCell id="kyCp9KhVEXS-VckJVs2e-74" value="Goods service" style="swimlane;whiteSpace=wrap;html=1;" vertex="1" parent="1">
          <mxGeometry x="430" y="1035" width="177.5" height="115" as="geometry" />
        </mxCell>
        <mxCell id="kyCp9KhVEXS-VckJVs2e-75" value="Возвращает пользователю&lt;br&gt;список товаров из БД" style="text;html=1;align=center;verticalAlign=middle;resizable=0;points=[];autosize=1;strokeColor=none;fillColor=none;" vertex="1" parent="kyCp9KhVEXS-VckJVs2e-74">
          <mxGeometry y="50" width="170" height="40" as="geometry" />
        </mxCell>
        <mxCell id="kyCp9KhVEXS-VckJVs2e-78" style="edgeStyle=orthogonalEdgeStyle;rounded=0;orthogonalLoop=1;jettySize=auto;html=1;entryX=0.5;entryY=0;entryDx=0;entryDy=0;entryPerimeter=0;startArrow=classic;startFill=1;" edge="1" parent="1" source="kyCp9KhVEXS-VckJVs2e-74" target="kyCp9KhVEXS-VckJVs2e-58">
          <mxGeometry relative="1" as="geometry" />
        </mxCell>
        <mxCell id="kyCp9KhVEXS-VckJVs2e-83" style="edgeStyle=orthogonalEdgeStyle;rounded=0;orthogonalLoop=1;jettySize=auto;html=1;entryX=0.6;entryY=1.032;entryDx=0;entryDy=0;entryPerimeter=0;startArrow=classic;startFill=1;" edge="1" parent="1" source="kyCp9KhVEXS-VckJVs2e-66" target="kyCp9KhVEXS-VckJVs2e-58">
          <mxGeometry relative="1" as="geometry" />
        </mxCell>
        <mxCell id="kyCp9KhVEXS-VckJVs2e-93" value="CV Registator" style="swimlane;whiteSpace=wrap;html=1;" vertex="1" parent="1">
          <mxGeometry x="680" y="530" width="180" height="130" as="geometry" />
        </mxCell>
        <mxCell id="kyCp9KhVEXS-VckJVs2e-94" value="Принимает фрейм с камеры&lt;br&gt;около стойки регистрации,&amp;nbsp;&lt;br&gt;возвращаем id регистрации" style="text;html=1;align=center;verticalAlign=middle;resizable=0;points=[];autosize=1;strokeColor=none;fillColor=none;" vertex="1" parent="kyCp9KhVEXS-VckJVs2e-93">
          <mxGeometry y="35" width="180" height="60" as="geometry" />
        </mxCell>
        <mxCell id="kyCp9KhVEXS-VckJVs2e-99" value="Detector" style="swimlane;whiteSpace=wrap;html=1;" vertex="1" parent="1">
          <mxGeometry x="900" y="530" width="185" height="130" as="geometry" />
        </mxCell>
        <mxCell id="kyCp9KhVEXS-VckJVs2e-100" value="Находим человека &lt;br&gt;рядом со стойкой регистрации&lt;br&gt;регистрируем его, &lt;br&gt;возвращаем id" style="text;html=1;align=center;verticalAlign=middle;resizable=0;points=[];autosize=1;strokeColor=none;fillColor=none;" vertex="1" parent="kyCp9KhVEXS-VckJVs2e-99">
          <mxGeometry x="-5" y="30" width="190" height="70" as="geometry" />
        </mxCell>
        <mxCell id="kyCp9KhVEXS-VckJVs2e-101" style="edgeStyle=orthogonalEdgeStyle;rounded=0;orthogonalLoop=1;jettySize=auto;html=1;entryX=0.013;entryY=0.132;entryDx=0;entryDy=0;entryPerimeter=0;startArrow=classic;startFill=1;" edge="1" parent="1" source="kyCp9KhVEXS-VckJVs2e-93" target="kyCp9KhVEXS-VckJVs2e-99">
          <mxGeometry relative="1" as="geometry">
            <Array as="points">
              <mxPoint x="880" y="595" />
              <mxPoint x="880" y="547" />
            </Array>
          </mxGeometry>
        </mxCell>
      </root>
    </mxGraphModel>
  </diagram>
</mxfile>
